<svg xmlns="http://www.w3.org/2000/svg" viewBox="0 0 48 48"><defs><style>.cls-1{fill:#9fdbf3;}.cls-2{fill:#b2e5fb;}.cls-3{fill:#9dcc6b;}.cls-4{fill:#b5e08c;}.cls-5{fill:#dad7e5;}.cls-6{fill:#edebf2;}.cls-7{fill:#6fabe6;}.cls-8{fill:#82bcf4;}</style></defs><title>27. Climate Change</title><g id="_27._Climate_Change" data-name="27. Climate Change"><circle class="cls-1" cx="28" cy="25" r="17"/><path class="cls-2" d="M45,25a16.92,16.92,0,0,1-6.13,13.06A16.82,16.82,0,0,1,31,40C15,40,8,20,20.13,9.94A17,17,0,0,1,45,25Z"/><path class="cls-3" d="M44.6,21.32a6.37,6.37,0,0,0-4,3.49c-.53,1.56.73,5.17-.74,7.39-.84,1.26-2.89,2.06-3.6,1.22-.55-.64-.74-1.83-.1-3.44s.74-3.69-1.48-4.43-4.43.74-5.17-3c-.46-2.29,1.79-3.27,2.95-4.43,1.84-1.84.63-2.66.59-4.16H41A16.87,16.87,0,0,1,44.6,21.32Z"/><path class="cls-3" d="M24.3,17.61c.74,3.69-2.95,2.22-4.43,3-1.87.93-.35,4.24-2.22,5.17a3.06,3.06,0,0,1-2.79,0A6,6,0,0,0,13,22.54V17A17,17,0,0,1,28,8a3,3,0,0,0-1.86,5.35c-.92-.18-1.84-.55-2.57-.18C22.09,13.91,23.9,15.56,24.3,17.61Z"/><path class="cls-3" d="M25.88,35.42a6,6,0,0,0-4.69-1.36c-.83-.56-1.69-.94-2.06-1.67-.74-1.48,0-4.43,3-3.69A5.73,5.73,0,0,1,25,30.91c.74,1.48,3,0,3.7,1.48C29.85,34.81,26.71,34.75,25.88,35.42Z"/><path class="cls-4" d="M27.74,10.43c-1.48,2.22-3.7,0-5.17.74s.33,2.39.73,4.44c.74,3.69-2.95,2.22-4.43,3-1.87.93-.35,4.24-2.22,5.17a3,3,0,0,1-2.58.09C12.77,21.39,13,25.06,13,17c4.58-8.58,14.5-9.49,15-8.95A2.88,2.88,0,0,1,27.74,10.43Z"/><path class="cls-4" d="M25.62,35.67a5.5,5.5,0,0,1-.79-1.58c-1-2.92-4.5-2.19-3.92-5.49A4.92,4.92,0,0,1,25,30.91c.84,1.67,3.31-.41,3.89,2.05C29.34,35,26.57,34.59,25.62,35.67Z"/><path class="cls-4" d="M44.59,21.32a6.27,6.27,0,0,0-4,3.49c-.48,1.41.5,4.49-.38,6.71-2.36,1-3-1.24-2.06-3.54.61-1.54.74-3.69-1.48-4.43s-4.43.74-5.17-3c-.43-2.09.86-1.86,1.69-3.37.45-.37.91-.71,1.26-1.06,2.19-2.19.06-2.94.71-5.09a10.28,10.28,0,0,1,1.62-.64A17,17,0,0,1,44.59,21.32Z"/><path class="cls-5" d="M7.71,32.87A6,6,0,0,1,5,22.54C5,5.88,4.6,5.76,6.17,4.17A4,4,0,0,1,13,7V22.54A6,6,0,0,1,7.71,32.87Z"/><path class="cls-6" d="M10,32.91c-1.63,0-4.28-1.88-4.85-4.64A6,6,0,0,1,7,22.54V7a4,4,0,0,1,3-3.87A4,4,0,0,1,13,7V22.54A6,6,0,0,1,10,32.91Z"/><path class="cls-7" d="M11,27a2,2,0,0,1-4,0A2,2,0,0,1,11,27Z"/><path class="cls-8" d="M9,26c-1.35,0-1-1.14-1-7a1,1,0,0,1,2,0C10,25,10.33,26,9,26Z"/><path class="cls-5" d="M45,10a4,4,0,0,1-4,4c-14.13,0-13.77.23-14.86-.65A3,3,0,0,1,28,8h.09A6,6,0,1,1,39.93,6.15,4,4,0,0,1,45,10Z"/><path class="cls-6" d="M43,13.45c-1.35.8-1.31.55-15,.55a1,1,0,0,1-.24,0c-2.07-2.34.59-5.55,2.33-5C28.9,2.45,38.88-1.47,39.93,6.15,44.36,4.85,47.07,11.12,43,13.45Z"/><path class="cls-5" d="M31,46.45c-1.35.8-1.31.55-15,.55-4,0-4-6,0-6,.16,0,0-.1,0-1a6,6,0,0,1,9.88-4.58,6,6,0,0,1,2.05,3.73C32.35,37.85,35.08,44.11,31,46.45Z"/><path class="cls-6" d="M31,46.45c-1.35.8-1.31.55-15,.55a1,1,0,0,1-.24,0c-2.07-2.34.59-5.55,2.33-5-1.19-6.56,8.79-10.48,9.84-2.86C32.36,37.85,35.07,44.12,31,46.45Z"/><path class="cls-8" d="M10.82,27.82a2,2,0,0,1-2.64-2.64A2,2,0,0,1,10.82,27.82Z"/></g></svg>